<?xml version="1.0" encoding="UTF-8"?>
<svg viewBox="0 0 1200 400" xmlns="http://www.w3.org/2000/svg" width="1200" height="400">
  <defs>
    <pattern id="g" width="40" height="40" patternUnits="userSpaceOnUse">
      <path d="M 40 0 L 0 0 0 40" fill="none" stroke="#2a2a30" stroke-width="0.5" opacity="0.5"/>
    </pattern>
  </defs>
  <rect width="1200" height="400" fill="#07070a"/>
  <rect width="1200" height="400" fill="url(#g)"/>
  <ellipse cx="200" cy="100" rx="350" ry="220" fill="#e8942e" opacity="0.05"/>
  <rect x="0" y="397" width="1200" height="3" fill="#e8942e" opacity="0.4"/>

  <!-- 4 tool cards -->
  <rect x="80" y="80" width="240" height="220" rx="10" fill="#111115" stroke="#2a2a30" stroke-width="1"/>
  <rect x="80" y="80" width="240" height="4" rx="0" fill="#e8942e" opacity="0.7"/>
  <text x="100" y="136" font-family="ui-monospace,monospace" font-size="15" font-weight="700" fill="#e8942e">RETAINAGE</text>
  <text x="100" y="158" font-family="ui-monospace,monospace" font-size="15" font-weight="700" fill="#f4efe6">CALCULATOR</text>
  <line x1="100" y1="170" x2="300" y2="170" stroke="#2a2a30" stroke-width="1"/>
  <text x="100" y="194" font-family="system-ui,sans-serif" font-size="11" fill="#a09880">Withheld / Released / Balance</text>
  <rect x="100" y="250" width="120" height="30" rx="15" fill="rgba(232,148,46,0.12)" stroke="#e8942e" stroke-width="1" stroke-opacity="0.4"/>
  <text x="160" y="270" font-family="ui-monospace,monospace" font-size="11" fill="#e8942e" text-anchor="middle">FREE TOOL</text>
  <rect x="360" y="80" width="240" height="220" rx="10" fill="#111115" stroke="#2a2a30" stroke-width="1"/>
  <rect x="360" y="80" width="240" height="4" rx="0" fill="#e8942e" opacity="0.7"/>
  <text x="380" y="136" font-family="ui-monospace,monospace" font-size="15" font-weight="700" fill="#e8942e">AIA G702</text>
  <text x="380" y="158" font-family="ui-monospace,monospace" font-size="15" font-weight="700" fill="#f4efe6">GENERATOR</text>
  <line x1="380" y1="170" x2="580" y2="170" stroke="#2a2a30" stroke-width="1"/>
  <text x="380" y="194" font-family="system-ui,sans-serif" font-size="11" fill="#a09880">G702 Cover + G703 Schedule</text>
  <rect x="380" y="250" width="120" height="30" rx="15" fill="rgba(232,148,46,0.12)" stroke="#e8942e" stroke-width="1" stroke-opacity="0.4"/>
  <text x="440" y="270" font-family="ui-monospace,monospace" font-size="11" fill="#e8942e" text-anchor="middle">FREE TOOL</text>
  <rect x="640" y="80" width="240" height="220" rx="10" fill="#111115" stroke="#2a2a30" stroke-width="1"/>
  <rect x="640" y="80" width="240" height="4" rx="0" fill="#e8942e" opacity="0.7"/>
  <text x="660" y="136" font-family="ui-monospace,monospace" font-size="15" font-weight="700" fill="#e8942e">CHANGE ORDER</text>
  <text x="660" y="158" font-family="ui-monospace,monospace" font-size="15" font-weight="700" fill="#f4efe6">CALCULATOR</text>
  <line x1="660" y1="170" x2="860" y2="170" stroke="#2a2a30" stroke-width="1"/>
  <text x="660" y="194" font-family="system-ui,sans-serif" font-size="11" fill="#a09880">Cost × OH × Profit + Bond</text>
  <rect x="660" y="250" width="120" height="30" rx="15" fill="rgba(232,148,46,0.12)" stroke="#e8942e" stroke-width="1" stroke-opacity="0.4"/>
  <text x="720" y="270" font-family="ui-monospace,monospace" font-size="11" fill="#e8942e" text-anchor="middle">FREE TOOL</text>
  <rect x="920" y="80" width="240" height="220" rx="10" fill="#111115" stroke="#2a2a30" stroke-width="1"/>
  <rect x="920" y="80" width="240" height="4" rx="0" fill="#e8942e" opacity="0.7"/>
  <text x="940" y="136" font-family="ui-monospace,monospace" font-size="15" font-weight="700" fill="#e8942e">ROI</text>
  <text x="940" y="158" font-family="ui-monospace,monospace" font-size="15" font-weight="700" fill="#f4efe6">CALCULATOR</text>
  <line x1="940" y1="170" x2="1140" y2="170" stroke="#2a2a30" stroke-width="1"/>
  <text x="940" y="194" font-family="system-ui,sans-serif" font-size="11" fill="#a09880">Labor saved vs. MASON cost</text>
  <rect x="940" y="250" width="120" height="30" rx="15" fill="rgba(232,148,46,0.12)" stroke="#e8942e" stroke-width="1" stroke-opacity="0.4"/>
  <text x="1000" y="270" font-family="ui-monospace,monospace" font-size="11" fill="#e8942e" text-anchor="middle">FREE TOOL</text>
  <text x="60" y="48" font-family="system-ui,sans-serif" font-size="28" font-weight="700" fill="#f4efe6">Free Construction Calculators</text>
  <text x="920" y="48" font-family="ui-monospace,monospace" font-size="11" fill="#a09880" text-anchor="end">MASON · masononsite.com</text>
  <line x1="60" y1="58" x2="200" y2="58" stroke="#e8942e" stroke-width="2" stroke-linecap="round"/>
</svg>