<?xml version="1.0" encoding="UTF-8"?>
<svg id="clash" viewBox="0 0 1200 630" xmlns="http://www.w3.org/2000/svg" width="1200" height="630">
  <defs>
    <pattern id="grid" width="40" height="40" patternUnits="userSpaceOnUse">
      <path d="M 40 0 L 0 0 0 40" fill="none" stroke="#2a2a30" stroke-width="0.5" opacity="0.6"/>
    </pattern>
    <linearGradient id="fadeRight" x1="0" y1="0" x2="1" y2="0">
      <stop offset="0%" stop-color="#07070a" stop-opacity="0"/>
      <stop offset="100%" stop-color="#07070a" stop-opacity="1"/>
    </linearGradient>
    <linearGradient id="accentGlow" x1="0" y1="0" x2="0" y2="1">
      <stop offset="0%" stop-color="#e8942e" stop-opacity="0.15"/>
      <stop offset="100%" stop-color="#e8942e" stop-opacity="0"/>
    </linearGradient>
  </defs>
  <!-- Background -->
  <rect width="1200" height="630" fill="#07070a"/>
  <rect width="1200" height="630" fill="url(#grid)"/>
  <!-- Orange accent glow top-left -->
  <ellipse cx="100" cy="80" rx="300" ry="200" fill="#e8942e" opacity="0.06"/>
  <!-- Bottom border accent -->
  <rect x="0" y="627" width="1200" height="3" fill="#e8942e" opacity="0.4"/>
  <!-- Label chip -->
  <rect x="60" y="200" width="auto" height="28" rx="14" fill="rgba(232,148,46,0.12)" stroke="#e8942e" stroke-width="1" stroke-opacity="0.4" width="200"/>
  <text x="80" y="219" font-family="ui-monospace,monospace" font-size="11" fill="#e8942e" letter-spacing="2" text-transform="uppercase">BIM · COORDINATION</text>
  <!-- Title -->
  <text x="60" y="310" font-family="system-ui,-apple-system,sans-serif" font-size="52" font-weight="700" fill="#f4efe6">CLASH DETECTION</text>
  <text x="60" y="390" font-family="system-ui,sans-serif" font-size="22" fill="#a09880" letter-spacing="0.5">IN BIM</text>
  <!-- MASON wordmark bottom right -->
  <text x="1120" y="602" font-family="ui-monospace,monospace" font-size="12" fill="#a09880" text-anchor="end" letter-spacing="3">MASON · masononsite.com</text>
  <!-- Orange corner accent -->
  <line x1="60" y1="240" x2="160" y2="240" stroke="#e8942e" stroke-width="2" stroke-linecap="round"/>
<polygon points="900,400 1100,300 1100,180 900,280" fill="none" stroke="#e8942e" stroke-width="1.5" opacity="0.4"/><polygon points="700,500 900,400 900,280 700,380" fill="none" stroke="#e8942e" stroke-width="1.5" opacity="0.3"/><polygon points="700,380 900,280 1100,180 900,280" fill="none" stroke="#e8942e" stroke-width="1.5" opacity="0.5"/><line x1="750" y1="355" x2="950" y2="255" stroke="#e8942e" stroke-width="0.5" opacity="0.25"/><line x1="800" y1="330" x2="1000" y2="230" stroke="#e8942e" stroke-width="0.5" opacity="0.25"/><line x1="850" y1="305" x2="1050" y2="205" stroke="#e8942e" stroke-width="0.5" opacity="0.25"/><circle cx="920" cy="320" r="10" fill="none" stroke="#e84b2e" stroke-width="2" opacity="0.9"/><line x1="914" y1="314" x2="926" y2="326" stroke="#e84b2e" stroke-width="2"/><line x1="926" y1="314" x2="914" y2="326" stroke="#e84b2e" stroke-width="2"/><circle cx="1020" cy="255" r="10" fill="none" stroke="#e84b2e" stroke-width="2" opacity="0.9"/><line x1="1014" y1="249" x2="1026" y2="261" stroke="#e84b2e" stroke-width="2"/><line x1="1026" y1="249" x2="1014" y2="261" stroke="#e84b2e" stroke-width="2"/><circle cx="820" cy="370" r="10" fill="none" stroke="#e84b2e" stroke-width="2" opacity="0.9"/><line x1="814" y1="364" x2="826" y2="376" stroke="#e84b2e" stroke-width="2"/><line x1="826" y1="364" x2="814" y2="376" stroke="#e84b2e" stroke-width="2"/><line x1="720" y1="360" x2="1080" y2="230" stroke="#4ab4e8" stroke-width="6" opacity="0.5" stroke-linecap="round"/><rect x="840" y="285" width="180" height="10" rx="2" fill="#e8942e" opacity="0.7" transform="rotate(-27 930 290)"/><rect x="60" y="440" width="200" height="80" rx="6" fill="#111115" stroke="#2a2a30" stroke-width="1"/><text x="80" y="470" font-family="ui-monospace,monospace" font-size="22" font-weight="700" fill="#e8942e">5-15%</text><text x="80" y="495" font-family="system-ui,sans-serif" font-size="12" fill="#a09880">Rework cost</text><rect x="280" y="440" width="200" height="80" rx="6" fill="#111115" stroke="#2a2a30" stroke-width="1"/><text x="300" y="470" font-family="ui-monospace,monospace" font-size="22" font-weight="700" fill="#e8942e">60-80%</text><text x="300" y="495" font-family="system-ui,sans-serif" font-size="12" fill="#a09880">Clashes caught early</text><rect x="500" y="440" width="200" height="80" rx="6" fill="#111115" stroke="#2a2a30" stroke-width="1"/><text x="520" y="470" font-family="ui-monospace,monospace" font-size="22" font-weight="700" fill="#e8942e">$1M+</text><text x="520" y="495" font-family="system-ui,sans-serif" font-size="12" fill="#a09880">Avg. project savings</text></svg>
