<?xml version="1.0" encoding="UTF-8"?>
<svg id="closeout" viewBox="0 0 1200 630" xmlns="http://www.w3.org/2000/svg" width="1200" height="630">
  <defs>
    <pattern id="grid" width="40" height="40" patternUnits="userSpaceOnUse">
      <path d="M 40 0 L 0 0 0 40" fill="none" stroke="#2a2a30" stroke-width="0.5" opacity="0.6"/>
    </pattern>
    <linearGradient id="fadeRight" x1="0" y1="0" x2="1" y2="0">
      <stop offset="0%" stop-color="#07070a" stop-opacity="0"/>
      <stop offset="100%" stop-color="#07070a" stop-opacity="1"/>
    </linearGradient>
    <linearGradient id="accentGlow" x1="0" y1="0" x2="0" y2="1">
      <stop offset="0%" stop-color="#e8942e" stop-opacity="0.15"/>
      <stop offset="100%" stop-color="#e8942e" stop-opacity="0"/>
    </linearGradient>
  </defs>
  <!-- Background -->
  <rect width="1200" height="630" fill="#07070a"/>
  <rect width="1200" height="630" fill="url(#grid)"/>
  <!-- Orange accent glow top-left -->
  <ellipse cx="100" cy="80" rx="300" ry="200" fill="#e8942e" opacity="0.06"/>
  <!-- Bottom border accent -->
  <rect x="0" y="627" width="1200" height="3" fill="#e8942e" opacity="0.4"/>
  <!-- Label chip -->
  <rect x="60" y="200" width="auto" height="28" rx="14" fill="rgba(232,148,46,0.12)" stroke="#e8942e" stroke-width="1" stroke-opacity="0.4" width="200"/>
  <text x="80" y="219" font-family="ui-monospace,monospace" font-size="11" fill="#e8942e" letter-spacing="2" text-transform="uppercase">CLOSEOUT · PUNCH LIST</text>
  <!-- Title -->
  <text x="60" y="310" font-family="system-ui,-apple-system,sans-serif" font-size="52" font-weight="700" fill="#f4efe6">PROJECT CLOSEOUT</text>
  <text x="60" y="390" font-family="system-ui,sans-serif" font-size="22" fill="#a09880" letter-spacing="0.5">CHECKLIST — 42 ITEMS</text>
  <!-- MASON wordmark bottom right -->
  <text x="1120" y="602" font-family="ui-monospace,monospace" font-size="12" fill="#a09880" text-anchor="end" letter-spacing="3">MASON · masononsite.com</text>
  <!-- Orange corner accent -->
  <line x1="60" y1="240" x2="160" y2="240" stroke="#e8942e" stroke-width="2" stroke-linecap="round"/>
<rect x="700" y="157" width="440" height="36" rx="4" fill="rgba(232,148,46,0.06)"/><text x="714" y="180" font-family="ui-monospace,monospace" font-size="16" fill="#e8942e" font-weight="700">✓</text><text x="744" y="180" font-family="system-ui,sans-serif" font-size="13" fill="#f4efe6">Punch list completed and verified</text><line x1="744" y1="180" x2="744" y2="180" stroke="none"/><rect x="700" y="201" width="440" height="36" rx="4" fill="rgba(232,148,46,0.06)"/><text x="714" y="224" font-family="ui-monospace,monospace" font-size="16" fill="#e8942e" font-weight="700">✓</text><text x="744" y="224" font-family="system-ui,sans-serif" font-size="13" fill="#f4efe6">Certificate of Occupancy issued</text><line x1="744" y1="224" x2="744" y2="224" stroke="none"/><rect x="700" y="245" width="440" height="36" rx="4" fill="rgba(232,148,46,0.06)"/><text x="714" y="268" font-family="ui-monospace,monospace" font-size="16" fill="#e8942e" font-weight="700">✓</text><text x="744" y="268" font-family="system-ui,sans-serif" font-size="13" fill="#f4efe6">O&M manuals — all systems</text><line x1="744" y1="268" x2="744" y2="268" stroke="none"/><rect x="700" y="289" width="440" height="36" rx="4" fill="rgba(232,148,46,0.06)"/><text x="714" y="312" font-family="ui-monospace,monospace" font-size="16" fill="#e8942e" font-weight="700">✓</text><text x="744" y="312" font-family="system-ui,sans-serif" font-size="13" fill="#f4efe6">Final lien waivers — all subs</text><line x1="744" y1="312" x2="744" y2="312" stroke="none"/><rect x="700" y="333" width="440" height="36" rx="4" fill="none"/><text x="714" y="356" font-family="ui-monospace,monospace" font-size="16" fill="#a09880" font-weight="700">○</text><text x="744" y="356" font-family="system-ui,sans-serif" font-size="13" fill="#a09880">Retainage released</text><rect x="700" y="377" width="440" height="36" rx="4" fill="none"/><text x="714" y="400" font-family="ui-monospace,monospace" font-size="16" fill="#a09880" font-weight="700">○</text><text x="744" y="400" font-family="system-ui,sans-serif" font-size="13" fill="#a09880">As-built drawings submitted</text><rect x="700" y="421" width="440" height="36" rx="4" fill="none"/><text x="714" y="444" font-family="ui-monospace,monospace" font-size="16" fill="#a09880" font-weight="700">○</text><text x="744" y="444" font-family="system-ui,sans-serif" font-size="13" fill="#a09880">11-month warranty walkthrough</text><rect x="700" y="490" width="440" height="6" rx="3" fill="#2a2a30"/><rect x="700" y="490" width="250" height="6" rx="3" fill="#e8942e"/><text x="700" y="516" font-family="ui-monospace,monospace" font-size="11" fill="#a09880">CLOSEOUT PROGRESS</text><text x="1140" y="516" font-family="ui-monospace,monospace" font-size="11" fill="#e8942e" text-anchor="end">57%</text><rect x="60" y="440" width="200" height="80" rx="6" fill="#111115" stroke="#2a2a30" stroke-width="1"/><text x="80" y="470" font-family="ui-monospace,monospace" font-size="18" font-weight="700" fill="#e8942e">8 phases</text><text x="80" y="495" font-family="system-ui,sans-serif" font-size="12" fill="#a09880">Full closeout process</text><rect x="280" y="440" width="200" height="80" rx="6" fill="#111115" stroke="#2a2a30" stroke-width="1"/><text x="300" y="470" font-family="ui-monospace,monospace" font-size="18" font-weight="700" fill="#e8942e">42 items</text><text x="300" y="495" font-family="system-ui,sans-serif" font-size="12" fill="#a09880">Complete checklist</text><rect x="500" y="440" width="200" height="80" rx="6" fill="#111115" stroke="#2a2a30" stroke-width="1"/><text x="520" y="470" font-family="ui-monospace,monospace" font-size="18" font-weight="700" fill="#e8942e">60-90 days</text><text x="520" y="495" font-family="system-ui,sans-serif" font-size="12" fill="#a09880">Start before SC</text></svg>
